<svg width="32" height="32" viewBox="0 0 32 32" fill="none" xmlns="http://www.w3.org/2000/svg">
<path d="M25.3333 25.3333C23.5758 25.3333 22.1667 26.7425 22.1667 28.5C22.1667 29.3399 22.5003 30.1453 23.0942 30.7392C23.688 31.333 24.4935 31.6667 25.3333 31.6667C26.1732 31.6667 26.9786 31.333 27.5725 30.7392C28.1664 30.1453 28.5 29.3399 28.5 28.5C28.5 27.6601 28.1664 26.8547 27.5725 26.2608C26.9786 25.667 26.1732 25.3333 25.3333 25.3333ZM0 0V3.16667H3.16667L8.86667 15.1842L6.71333 19.0633C6.47583 19.5067 6.33333 20.0292 6.33333 20.5833C6.33333 21.4232 6.66696 22.2286 7.26083 22.8225C7.85469 23.4164 8.66015 23.75 9.5 23.75H28.5V20.5833H10.165C10.06 20.5833 9.95934 20.5416 9.8851 20.4674C9.81087 20.3932 9.76917 20.2925 9.76917 20.1875C9.76917 20.1083 9.785 20.045 9.81667 19.9975L11.2417 17.4167H23.0375C24.225 17.4167 25.27 16.7517 25.8083 15.7858L31.4767 5.54167C31.5875 5.28833 31.6667 5.01917 31.6667 4.75C31.6667 4.33007 31.4999 3.92735 31.2029 3.63041C30.906 3.33348 30.5033 3.16667 30.0833 3.16667H6.66583L5.1775 0M9.5 25.3333C7.7425 25.3333 6.33333 26.7425 6.33333 28.5C6.33333 29.3399 6.66696 30.1453 7.26083 30.7392C7.85469 31.333 8.66015 31.6667 9.5 31.6667C10.3399 31.6667 11.1453 31.333 11.7392 30.7392C12.333 30.1453 12.6667 29.3399 12.6667 28.5C12.6667 27.6601 12.333 26.8547 11.7392 26.2608C11.1453 25.667 10.3399 25.3333 9.5 25.3333Z" fill="white"/>
</svg>
