<svg width="38" height="33" viewBox="0 0 38 33" fill="none" xmlns="http://www.w3.org/2000/svg">
<path d="M14.7929 4.125C14.25 1.7875 12.0786 0 9.5 0C6.92143 0 4.88571 1.7875 4.20714 4.125H0V6.875H4.20714C4.75 9.2125 6.92143 11 9.5 11C12.0786 11 14.1143 9.2125 14.7929 6.875H38V4.125H14.7929ZM9.5 8.25C8.00714 8.25 6.78571 7.0125 6.78571 5.5C6.78571 3.9875 8.00714 2.75 9.5 2.75C10.9929 2.75 12.2143 3.9875 12.2143 5.5C12.2143 7.0125 10.9929 8.25 9.5 8.25ZM28.5 11C25.9214 11 23.8857 12.7875 23.2071 15.125H0V17.875H23.2071C23.75 20.2125 25.9214 22 28.5 22C31.0786 22 33.1143 20.2125 33.7929 17.875H38V15.125H33.7929C33.25 12.7875 31.0786 11 28.5 11ZM28.5 19.25C27.0071 19.25 25.7857 18.0125 25.7857 16.5C25.7857 14.9875 27.0071 13.75 28.5 13.75C29.9929 13.75 31.2143 14.9875 31.2143 16.5C31.2143 18.0125 29.9929 19.25 28.5 19.25ZM16.2857 22C13.7071 22 11.6714 23.7875 10.9929 26.125H0V28.875H10.9929C11.5357 31.2125 13.7071 33 16.2857 33C18.8643 33 20.9 31.2125 21.5786 28.875H38V26.125H21.5786C21.0357 23.7875 18.8643 22 16.2857 22ZM16.2857 30.25C14.7929 30.25 13.5714 29.0125 13.5714 27.5C13.5714 25.9875 14.7929 24.75 16.2857 24.75C17.7786 24.75 19 25.9875 19 27.5C19 29.0125 17.7786 30.25 16.2857 30.25Z" fill="white"/>
</svg>
