<svg width="32" height="30" viewBox="0 0 32 30" fill="none" xmlns="http://www.w3.org/2000/svg">
<path d="M15.9917 24.6208L15.8333 24.7792L15.6592 24.6208C8.13833 17.7967 3.16667 13.2842 3.16667 8.70833C3.16667 5.54167 5.54167 3.16667 8.70833 3.16667C11.1467 3.16667 13.5217 4.75 14.3608 6.90333H17.3058C18.145 4.75 20.52 3.16667 22.9583 3.16667C26.125 3.16667 28.5 5.54167 28.5 8.70833C28.5 13.2842 23.5283 17.7967 15.9917 24.6208ZM22.9583 0C20.2033 0 17.5592 1.2825 15.8333 3.29333C14.1075 1.2825 11.4633 0 8.70833 0C3.83167 0 0 3.81583 0 8.70833C0 14.6775 5.38333 19.57 13.5375 26.9642L15.8333 29.0542L18.1292 26.9642C26.2833 19.57 31.6667 14.6775 31.6667 8.70833C31.6667 3.81583 27.835 0 22.9583 0Z" fill="white"/>
</svg>
