<svg width="28" height="28" viewBox="0 0 28 28" fill="none" xmlns="http://www.w3.org/2000/svg">
<path d="M10.2917 20.5833C7.41528 20.5833 4.98117 19.5869 2.98933 17.594C0.997501 15.6011 0.00105639 13.167 8.37742e-07 10.2917C-0.00105472 7.41633 0.99539 4.98222 2.98933 2.98933C4.98328 0.996444 7.41739 0 10.2917 0C13.1659 0 15.6006 0.996444 17.5956 2.98933C19.5906 4.98222 20.5865 7.41633 20.5833 10.2917C20.5833 11.4528 20.3986 12.5479 20.0292 13.5771C19.6597 14.6062 19.1583 15.5167 18.525 16.3083L27.3917 25.175C27.6819 25.4653 27.8271 25.8347 27.8271 26.2833C27.8271 26.7319 27.6819 27.1014 27.3917 27.3917C27.1014 27.6819 26.7319 27.8271 26.2833 27.8271C25.8347 27.8271 25.4653 27.6819 25.175 27.3917L16.3083 18.525C15.5167 19.1583 14.6063 19.6597 13.5771 20.0292C12.5479 20.3986 11.4528 20.5833 10.2917 20.5833ZM10.2917 17.4167C12.2708 17.4167 13.9534 16.7242 15.3393 15.3393C16.7253 13.9544 17.4177 12.2719 17.4167 10.2917C17.4156 8.31144 16.7232 6.62942 15.3393 5.24558C13.9555 3.86175 12.2729 3.16878 10.2917 3.16667C8.31039 3.16456 6.62836 3.85753 5.24558 5.24558C3.86281 6.63364 3.16983 8.31567 3.16667 10.2917C3.1635 12.2677 3.85647 13.9502 5.24558 15.3393C6.6347 16.7284 8.31672 17.4209 10.2917 17.4167Z" fill="#111111"/>
</svg>
